<svg viewBox="0 0 800 280" xmlns="http://www.w3.org/2000/svg" opacity=".4">
  <defs>
    <linearGradient id="skyGradient" x1="0%" y1="0%" x2="0%" y2="100%">
      <stop offset="0%" style="stop-color:#0c4a6e;stop-opacity:1" />
      <stop offset="100%" style="stop-color:#0284c7;stop-opacity:1" />
    </linearGradient>
    <linearGradient id="buildingGradient1" x1="0%" y1="0%" x2="0%" y2="100%">
      <stop offset="0%" style="stop-color:#cbd5e1;stop-opacity:1" />
      <stop offset="100%" style="stop-color:#64748b;stop-opacity:1" />
    </linearGradient>
    <linearGradient id="buildingGradient2" x1="0%" y1="0%" x2="0%" y2="100%">
      <stop offset="0%" style="stop-color:#7dd3fc;stop-opacity:1" />
      <stop offset="100%" style="stop-color:#0369a1;stop-opacity:1" />
    </linearGradient>
    <linearGradient id="buildingGradient3" x1="0%" y1="0%" x2="0%" y2="100%">
      <stop offset="0%" style="stop-color:#94a3b8;stop-opacity:1" />
      <stop offset="100%" style="stop-color:#475569;stop-opacity:1" />
    </linearGradient>
  </defs>
  
  <!-- Bright sky background -->
  <rect width="800" height="240" fill="url(#skyGradient)"/>
  
  <!-- Road at bottom -->
  <rect x="0" y="240" width="800" height="40" fill="#475569"/>
  <!-- Road markings -->
  <rect x="0" y="258" width="60" height="4" fill="#fbbf24" opacity="0.8"/>
  <rect x="80" y="258" width="60" height="4" fill="#fbbf24" opacity="0.8"/>
  <rect x="160" y="258" width="60" height="4" fill="#fbbf24" opacity="0.8"/>
  <rect x="240" y="258" width="60" height="4" fill="#fbbf24" opacity="0.8"/>
  <rect x="320" y="258" width="60" height="4" fill="#fbbf24" opacity="0.8"/>
  <rect x="400" y="258" width="60" height="4" fill="#fbbf24" opacity="0.8"/>
  <rect x="480" y="258" width="60" height="4" fill="#fbbf24" opacity="0.8"/>
  <rect x="560" y="258" width="60" height="4" fill="#fbbf24" opacity="0.8"/>
  <rect x="640" y="258" width="60" height="4" fill="#fbbf24" opacity="0.8"/>
  <rect x="720" y="258" width="60" height="4" fill="#fbbf24" opacity="0.8"/>
  
  <!-- Sun -->
  <circle cx="700" cy="80" r="40" fill="#fef08a" opacity="0.8"/>
  <circle cx="700" cy="80" r="50" fill="#fef08a" opacity="0.3"/>
  
  <!-- Abstract data grid pattern -->
  <g opacity="0.15">
    <line x1="0" y1="60" x2="800" y2="60" stroke="white" stroke-width="1"/>
    <line x1="0" y1="120" x2="800" y2="120" stroke="white" stroke-width="1"/>
    <line x1="0" y1="180" x2="800" y2="180" stroke="white" stroke-width="1"/>
    <line x1="200" y1="0" x2="200" y2="240" stroke="white" stroke-width="1"/>
    <line x1="400" y1="0" x2="400" y2="240" stroke="white" stroke-width="1"/>
    <line x1="600" y1="0" x2="600" y2="240" stroke="white" stroke-width="1"/>
  </g>
  
  <!-- Single-family houses on left -->
  <!-- House 1 -->
  <polygon points="50,204 80,195 110,204" fill="#64748b"/>
  <rect x="55" y="204" width="50" height="36" fill="#fef3c7"/>
  <rect x="65" y="210" width="12" height="10" fill="#3b82f6" opacity="0.7"/>
  <rect x="83" y="210" width="12" height="10" fill="#3b82f6" opacity="0.7"/>
  <rect x="72" y="225" width="16" height="15" fill="#7c2d12"/>
  
  <!-- House 2 -->
  <polygon points="115,207 145,198 175,207" fill="#78716c"/>
  <rect x="120" y="207" width="50" height="33" fill="#fef9c3"/>
  <rect x="130" y="213" width="12" height="10" fill="#3b82f6" opacity="0.7"/>
  <rect x="148" y="213" width="12" height="10" fill="#3b82f6" opacity="0.7"/>
  <rect x="137" y="226" width="16" height="14" fill="#7c2d12"/>
  
  <!-- Duplex -->
  <polygon points="185,201 220,191 255,201" fill="#6b7280"/>
  <rect x="190" y="201" width="60" height="39" fill="#fefce8"/>
  <line x1="220" y1="201" x2="220" y2="240" stroke="#a16207" stroke-width="2"/>
  <rect x="198" y="207" width="12" height="10" fill="#3b82f6" opacity="0.7"/>
  <rect x="230" y="207" width="12" height="10" fill="#3b82f6" opacity="0.7"/>
  <rect x="198" y="223" width="14" height="17" fill="#7c2d12"/>
  <rect x="230" y="223" width="14" height="17" fill="#7c2d12"/>
  
  <!-- Medium office building -->
  <rect x="270" y="120" width="70" height="120" fill="url(#buildingGradient2)"/>
  <g>
    <rect x="280" y="132" width="12" height="11" fill="#1e40af" opacity="0.6"/>
    <rect x="298" y="132" width="12" height="11" fill="#1e40af" opacity="0.6"/>
    <rect x="316" y="132" width="12" height="11" fill="#1e40af" opacity="0.6"/>
    <rect x="280" y="150" width="12" height="11" fill="#1e40af" opacity="0.6"/>
    <rect x="298" y="150" width="12" height="11" fill="#1e40af" opacity="0.6"/>
    <rect x="316" y="150" width="12" height="11" fill="#1e40af" opacity="0.6"/>
    <rect x="280" y="168" width="12" height="11" fill="#1e40af" opacity="0.6"/>
    <rect x="298" y="168" width="12" height="11" fill="#1e40af" opacity="0.6"/>
    <rect x="316" y="168" width="12" height="11" fill="#1e40af" opacity="0.6"/>
    <rect x="280" y="186" width="12" height="11" fill="#1e40af" opacity="0.6"/>
    <rect x="298" y="186" width="12" height="11" fill="#1e40af" opacity="0.6"/>
    <rect x="316" y="186" width="12" height="11" fill="#1e40af" opacity="0.6"/>
    <rect x="280" y="204" width="12" height="11" fill="#1e40af" opacity="0.6"/>
    <rect x="298" y="204" width="12" height="11" fill="#1e40af" opacity="0.6"/>
    <rect x="316" y="204" width="12" height="11" fill="#1e40af" opacity="0.6"/>
    <rect x="280" y="222" width="12" height="11" fill="#1e40af" opacity="0.6"/>
    <rect x="298" y="222" width="12" height="11" fill="#1e40af" opacity="0.6"/>
    <rect x="316" y="222" width="12" height="11" fill="#1e40af" opacity="0.6"/>
  </g>
  
  <!-- Tall tower -->
  <rect x="360" y="72" width="60" height="168" fill="url(#buildingGradient1)"/>
  <g>
    <rect x="368" y="84" width="10" height="9" fill="#2563eb" opacity="0.5"/>
    <rect x="383" y="84" width="10" height="9" fill="#2563eb" opacity="0.5"/>
    <rect x="398" y="84" width="10" height="9" fill="#2563eb" opacity="0.5"/>
    <rect x="368" y="99" width="10" height="9" fill="#2563eb" opacity="0.5"/>
    <rect x="383" y="99" width="10" height="9" fill="#2563eb" opacity="0.5"/>
    <rect x="398" y="99" width="10" height="9" fill="#2563eb" opacity="0.5"/>
    <rect x="368" y="114" width="10" height="9" fill="#2563eb" opacity="0.5"/>
    <rect x="383" y="114" width="10" height="9" fill="#2563eb" opacity="0.5"/>
    <rect x="398" y="114" width="10" height="9" fill="#2563eb" opacity="0.5"/>
    <rect x="368" y="129" width="10" height="9" fill="#2563eb" opacity="0.5"/>
    <rect x="383" y="129" width="10" height="9" fill="#2563eb" opacity="0.5"/>
    <rect x="398" y="129" width="10" height="9" fill="#2563eb" opacity="0.5"/>
    <rect x="368" y="144" width="10" height="9" fill="#2563eb" opacity="0.5"/>
    <rect x="383" y="144" width="10" height="9" fill="#2563eb" opacity="0.5"/>
    <rect x="398" y="144" width="10" height="9" fill="#2563eb" opacity="0.5"/>
    <rect x="368" y="159" width="10" height="9" fill="#2563eb" opacity="0.5"/>
    <rect x="383" y="159" width="10" height="9" fill="#2563eb" opacity="0.5"/>
    <rect x="398" y="159" width="10" height="9" fill="#2563eb" opacity="0.5"/>
    <rect x="368" y="174" width="10" height="9" fill="#2563eb" opacity="0.5"/>
    <rect x="383" y="174" width="10" height="9" fill="#2563eb" opacity="0.5"/>
    <rect x="398" y="174" width="10" height="9" fill="#2563eb" opacity="0.5"/>
    <rect x="368" y="189" width="10" height="9" fill="#2563eb" opacity="0.5"/>
    <rect x="383" y="189" width="10" height="9" fill="#2563eb" opacity="0.5"/>
    <rect x="398" y="189" width="10" height="9" fill="#2563eb" opacity="0.5"/>
    <rect x="368" y="204" width="10" height="9" fill="#2563eb" opacity="0.5"/>
    <rect x="383" y="204" width="10" height="9" fill="#2563eb" opacity="0.5"/>
    <rect x="398" y="204" width="10" height="9" fill="#2563eb" opacity="0.5"/>
    <rect x="368" y="219" width="10" height="9" fill="#2563eb" opacity="0.5"/>
    <rect x="383" y="219" width="10" height="9" fill="#2563eb" opacity="0.5"/>
    <rect x="398" y="219" width="10" height="9" fill="#2563eb" opacity="0.5"/>
  </g>
  
  <!-- Medium building -->
  <rect x="440" y="144" width="65" height="96" fill="url(#buildingGradient3)"/>
  <g>
    <rect x="450" y="156" width="10" height="9" fill="#0284c7" opacity="0.5"/>
    <rect x="465" y="156" width="10" height="9" fill="#0284c7" opacity="0.5"/>
    <rect x="480" y="156" width="10" height="9" fill="#0284c7" opacity="0.5"/>
    <rect x="450" y="171" width="10" height="9" fill="#0284c7" opacity="0.5"/>
    <rect x="465" y="171" width="10" height="9" fill="#0284c7" opacity="0.5"/>
    <rect x="480" y="171" width="10" height="9" fill="#0284c7" opacity="0.5"/>
    <rect x="450" y="186" width="10" height="9" fill="#0284c7" opacity="0.5"/>
    <rect x="465" y="186" width="10" height="9" fill="#0284c7" opacity="0.5"/>
    <rect x="480" y="186" width="10" height="9" fill="#0284c7" opacity="0.5"/>
    <rect x="450" y="201" width="10" height="9" fill="#0284c7" opacity="0.5"/>
    <rect x="465" y="201" width="10" height="9" fill="#0284c7" opacity="0.5"/>
    <rect x="480" y="201" width="10" height="9" fill="#0284c7" opacity="0.5"/>
    <rect x="450" y="216" width="10" height="9" fill="#0284c7" opacity="0.5"/>
    <rect x="465" y="216" width="10" height="9" fill="#0284c7" opacity="0.5"/>
    <rect x="480" y="216" width="10" height="9" fill="#0284c7" opacity="0.5"/>
  </g>
  
  <!-- Row houses on right -->
  <!-- House 3 -->
  <polygon points="520,198 545,189 570,198" fill="#64748b"/>
  <rect x="525" y="198" width="40" height="42" fill="#fffbeb"/>
  <rect x="533" y="204" width="10" height="8" fill="#3b82f6" opacity="0.7"/>
  <rect x="547" y="204" width="10" height="8" fill="#3b82f6" opacity="0.7"/>
  <rect x="538" y="222" width="14" height="18" fill="#7c2d12"/>
  
  <!-- House 4 -->
  <polygon points="575,201 600,192 625,201" fill="#78716c"/>
  <rect x="580" y="201" width="40" height="39" fill="#fef3c7"/>
  <rect x="588" y="207" width="10" height="8" fill="#3b82f6" opacity="0.7"/>
  <rect x="602" y="207" width="10" height="8" fill="#3b82f6" opacity="0.7"/>
  <rect x="593" y="223" width="14" height="17" fill="#7c2d12"/>
  
  <!-- House 5 -->
  <polygon points="630,199 655,190 680,199" fill="#6b7280"/>
  <rect x="635" y="199" width="40" height="41" fill="#fefce8"/>
  <rect x="643" y="205" width="10" height="8" fill="#3b82f6" opacity="0.7"/>
  <rect x="657" y="205" width="10" height="8" fill="#3b82f6" opacity="0.7"/>
  <rect x="648" y="223" width="14" height="17" fill="#7c2d12"/>
  
  <!-- Data visualization elements -->
  <g opacity="0.4">
    <circle cx="150" cy="72" r="5" fill="#f59e0b"/>
    <circle cx="250" cy="60" r="6" fill="#f59e0b"/>
    <circle cx="350" cy="48" r="5" fill="#f59e0b"/>
    <circle cx="450" cy="66" r="7" fill="#f59e0b"/>
    <circle cx="550" cy="54" r="5" fill="#f59e0b"/>
    
    <line x1="150" y1="72" x2="250" y2="60" stroke="#f59e0b" stroke-width="2"/>
    <line x1="250" y1="60" x2="350" y2="48" stroke="#f59e0b" stroke-width="2"/>
    <line x1="350" y1="48" x2="450" y2="66" stroke="#f59e0b" stroke-width="2"/>
    <line x1="450" y1="66" x2="550" y2="54" stroke="#f59e0b" stroke-width="2"/>
  </g>
</svg>